{
  "accessors": [
    {
      "bufferView": 2,
      "componentType": 5126,
      "count": 15974,
      "max": [
        97.04006958007813,
        15.725499153137207,
        178.0474853515625
      ],
      "min": [
        -97.0438232421875,
        -18.067066192626953,
        0.0012179999612271786
      ],
      "type": "VEC3"
    },
    {
      "bufferView": 2,
      "byteOffset": 191688,
      "componentType": 5126,
      "count": 15974,
      "max": [
        0.9999828934669495,
        0.9998219013214111,
        0.9999863505363464
      ],
      "min": [
        -0.9999106526374817,
        -0.9999914765357971,
        -0.9999903440475464
      ],
      "type": "VEC3"
    },
    {
      "bufferView": 3,
      "componentType": 5126,
      "count": 15974,
      "max": [
        1.0,
        0.9999911785125732,
        0.999668300151825,
        1.0
      ],
      "min": [
        -1.0,
        -0.9999744892120361,
        -0.9999197125434875,
        -1.0
      ],
      "type": "VEC4"
    },
    {
      "bufferView": 1,
      "componentType": 5126,
      "count": 15974,
      "max": [
        0.9924700260162354,
        0.9978560209274292
      ],
      "min": [
        0.004989999812096357,
        0.008317999541759491
      ],
      "type": "VEC2"
    },
    {
      "bufferView": 0,
      "componentType": 5125,
      "count": 86784,
      "type": "SCALAR"
    },
    {
      "bufferView": 2,
      "byteOffset": 383376,
      "componentType": 5126,
      "count": 910,
      "max": [
        5.464808940887451,
        -4.436807155609131,
        169.231689453125
      ],
      "min": [
        -4.909556865692139,
        -8.806103706359863,
        165.71200561523438
      ],
      "type": "VEC3"
    },
    {
      "bufferView": 2,
      "byteOffset": 394296,
      "componentType": 5126,
      "count": 910,
      "max": [
        0.9998515248298645,
        0.9987534880638123,
        0.9999107718467712
      ],
      "min": [
        -0.9998548626899719,
        -0.9989060163497925,
        -0.9999120235443115
      ],
      "type": "VEC3"
    },
    {
      "bufferView": 3,
      "byteOffset": 255584,
      "componentType": 5126,
      "count": 910,
      "max": [
        0.9999954104423523,
        0.9991363883018494,
        0.5923550128936768,
        1.0
      ],
      "min": [
        -0.999986469745636,
        -0.998626172542572,
        -0.6408695578575134,
        1.0
      ],
      "type": "VEC4"
    },
    {
      "bufferView": 1,
      "byteOffset": 127792,
      "componentType": 5126,
      "count": 910,
      "max": [
        0.5983250141143799,
        0.9982979893684387
      ],
      "min": [
        0.501675009727478,
        0.602649986743927
      ],
      "type": "VEC2"
    },
    {
      "bufferView": 0,
      "byteOffset": 347136,
      "componentType": 5125,
      "count": 4902,
      "type": "SCALAR"
    }
  ],
  "asset": {
    "extras": {
      "author": "Digital Fashionwear (DF) (https://sketchfab.com/digitalfashionwear)",
      "license": "CC-BY-4.0 (http://creativecommons.org/licenses/by/4.0/)",
      "source": "https://sketchfab.com/3d-models/male-model-design-c4a386c6c63a4a0e90d278f165b0f512",
      "title": "Male Model Design"
    },
    "generator": "Sketchfab-14.81.0",
    "version": "2.0"
  },
  "bufferViews": [
    {
      "buffer": 0,
      "byteLength": 366744,
      "name": "floatBufferViews",
      "target": 34963
    },
    {
      "buffer": 0,
      "byteLength": 135072,
      "byteOffset": 366744,
      "byteStride": 8,
      "name": "floatBufferViews",
      "target": 34962
    },
    {
      "buffer": 0,
      "byteLength": 405216,
      "byteOffset": 501816,
      "byteStride": 12,
      "name": "floatBufferViews",
      "target": 34962
    },
    {
      "buffer": 0,
      "byteLength": 270144,
      "byteOffset": 907032,
      "byteStride": 16,
      "name": "floatBufferViews",
      "target": 34962
    }
  ],
  "buffers": [
    {
      "byteLength": 1177176,
      "uri": "scene.bin"
    }
  ],
  "extensionsRequired": [
    "KHR_materials_pbrSpecularGlossiness"
  ],
  "extensionsUsed": [
    "KHR_materials_pbrSpecularGlossiness"
  ],
  "images": [
    {
      "uri": "textures/Body_diffuse.png"
    },
    {
      "uri": "textures/Body_specularGlossiness.png"
    },
    {
      "uri": "textures/Body_normal.png"
    }
  ],
  "materials": [
    {
      "alphaMode": "BLEND",
      "doubleSided": true,
      "extensions": {
        "KHR_materials_pbrSpecularGlossiness": {
          "diffuseFactor": [
            1.0,
            1.0,
            1.0,
            1.0
          ],
          "diffuseTexture": {
            "index": 0
          },
          "glossinessFactor": 1.0,
          "specularFactor": [
            0.05,
            0.05,
            0.05
          ],
          "specularGlossinessTexture": {
            "index": 1
          }
        }
      },
      "name": "Body",
      "normalTexture": {
        "index": 2
      }
    }
  ],
  "meshes": [
    {
      "name": "Object_0",
      "primitives": [
        {
          "attributes": {
            "NORMAL": 1,
            "POSITION": 0,
            "TANGENT": 2,
            "TEXCOORD_0": 3
          },
          "indices": 4,
          "material": 0,
          "mode": 4
        }
      ]
    },
    {
      "name": "Object_1",
      "primitives": [
        {
          "attributes": {
            "NORMAL": 6,
            "POSITION": 5,
            "TANGENT": 7,
            "TEXCOORD_0": 8
          },
          "indices": 9,
          "material": 0,
          "mode": 4
        }
      ]
    }
  ],
  "nodes": [
    {
      "children": [
        1
      ],
      "matrix": [
        1.0,
        0.0,
        0.0,
        0.0,
        0.0,
        2.220446049250313e-16,
        -1.0,
        0.0,
        0.0,
        1.0,
        2.220446049250313e-16,
        0.0,
        0.0,
        0.0,
        0.0,
        1.0
      ],
      "name": "Sketchfab_model"
    },
    {
      "children": [
        2,
        3
      ],
      "name": "Male Model.obj.cleaner.materialmerger.gles"
    },
    {
      "mesh": 0,
      "name": "Object_2"
    },
    {
      "mesh": 1,
      "name": "Object_3"
    }
  ],
  "samplers": [
    {
      "magFilter": 9729,
      "minFilter": 9987,
      "wrapS": 10497,
      "wrapT": 10497
    }
  ],
  "scene": 0,
  "scenes": [
    {
      "name": "Sketchfab_Scene",
      "nodes": [
        0
      ]
    }
  ],
  "textures": [
    {
      "sampler": 0,
      "source": 0
    },
    {
      "sampler": 0,
      "source": 1
    },
    {
      "sampler": 0,
      "source": 2
    }
  ]
}
